<?xml version="1.0" standalone="no"?>
<!DOCTYPE svg PUBLIC "-//W3C//DTD SVG 20010904//EN"
 "http://www.w3.org/TR/2001/REC-SVG-20010904/DTD/svg10.dtd">
<svg version="1.0" xmlns="http://www.w3.org/2000/svg"
 width="600.000000pt" height="600.000000pt" viewBox="0 0 600.000000 600.000000"
 preserveAspectRatio="xMidYMid meet">
<metadata>
Created by potrace 1.14, written by Peter Selinger 2001-2017
</metadata>
<g transform="translate(0.000000,600.000000) scale(0.100000,-0.100000)"
fill="#000000" stroke="none">
<path d="M2124 5960 c-33 -22 -77 -58 -98 -79 l-39 -40 -41 29 c-108 74 -326
96 -481 48 -89 -27 -185 -108 -228 -193 -23 -45 -31 -100 -18 -124 14 -25 12
-25 -36 -7 -63 24 -163 34 -302 31 -121 -3 -136 -6 -194 -33 -34 -17 -83 -39
-108 -50 -102 -44 -255 -163 -310 -242 -54 -79 -91 -177 -114 -307 -29 -158
-18 -310 31 -446 l24 -68 -28 -10 c-15 -5 -62 -31 -105 -56 l-77 -47 0 -592 0
-591 61 -33 c56 -30 60 -34 53 -59 -11 -42 -5 -146 11 -185 8 -19 15 -38 15
-41 0 -3 -30 -4 -67 -3 -58 3 -68 0 -71 -14 -3 -16 6 -18 77 -18 46 0 90 -5
101 -12 33 -21 31 -4 -6 69 -39 76 -46 128 -27 214 26 123 137 265 248 320 54
26 78 32 164 36 100 6 170 -5 196 -30 7 -7 4 -8 -7 -4 -10 4 -18 2 -18 -2 0
-5 29 -19 65 -31 52 -17 74 -32 113 -75 67 -73 83 -111 86 -203 1 -71 3 -77
24 -80 12 -2 22 -6 22 -10 0 -4 -27 -29 -60 -55 -59 -48 -102 -67 -151 -67
-59 0 -32 -50 53 -98 29 -16 131 -39 158 -35 101 14 109 14 105 -6 -5 -29 -14
-123 -21 -236 -7 -115 9 -277 34 -347 16 -46 16 -48 -3 -62 -28 -20 -129 -51
-204 -62 -19 -2 -37 -6 -40 -8 -3 -2 -35 0 -71 5 -113 14 -184 63 -210 146 -7
21 -16 42 -20 47 -5 4 -25 -10 -45 -33 -50 -55 -158 -125 -241 -157 -72 -27
-168 -37 -213 -20 -18 6 -22 5 -16 -4 6 -10 -3 -11 -43 -6 -47 6 -52 5 -52
-12 0 -22 39 -32 129 -32 123 0 319 78 419 165 28 26 52 40 52 33 0 -36 60
-108 112 -134 47 -25 65 -28 169 -30 102 -3 125 0 185 21 38 14 77 29 86 35
27 16 44 12 57 -12 6 -13 30 -48 54 -79 23 -32 58 -79 79 -107 l36 -49 -65
-94 c-83 -120 -96 -133 -168 -176 -71 -43 -339 -222 -445 -298 -41 -30 -104
-71 -140 -91 -77 -45 -168 -127 -186 -170 -31 -74 36 -241 143 -355 58 -61 96
-93 223 -186 25 -18 50 -37 57 -43 7 -5 16 -10 20 -10 5 0 24 -13 43 -29 19
-15 50 -36 68 -45 22 -11 39 -32 51 -59 21 -49 59 -89 113 -119 21 -12 38 -25
38 -28 0 -4 -26 -21 -57 -38 -32 -17 -73 -42 -92 -56 l-35 -26 47 0 c29 0 49
5 54 14 14 25 205 147 333 213 69 36 130 69 137 75 7 5 18 8 24 6 6 -2 -1 -12
-17 -22 -31 -20 -133 -94 -149 -109 -5 -5 9 0 32 12 45 22 82 29 48 8 -11 -6
-52 -26 -92 -43 -82 -36 -267 -143 -260 -150 3 -3 57 20 120 50 135 65 320
119 487 142 145 20 321 58 427 94 98 32 178 90 213 152 l24 43 -45 -41 c-25
-23 -65 -53 -90 -67 -62 -36 -232 -91 -378 -122 -68 -14 -128 -28 -132 -31 -5
-3 -15 -1 -24 3 -10 6 33 24 133 58 226 76 325 128 419 219 l53 50 32 -31 c44
-41 113 -75 146 -71 24 3 27 0 23 -22 -4 -33 -24 -71 -47 -91 -39 -34 -230
-142 -415 -236 l-192 -98 59 -3 c53 -3 74 3 202 58 79 33 147 60 153 60 14 0
10 -52 -6 -80 -21 -37 -19 -40 34 -40 40 0 57 6 93 33 23 18 48 43 54 55 11
23 12 22 34 -15 17 -29 20 -41 11 -55 -11 -17 -2 -18 147 -18 144 0 158 2 169
19 7 11 25 22 42 26 16 3 35 13 42 21 19 23 26 17 33 -26 l6 -40 220 0 c209 0
220 1 220 19 0 10 6 21 14 24 17 7 40 -18 31 -33 -4 -7 30 -10 104 -10 102 0
113 2 148 26 42 28 73 26 109 -7 18 -17 36 -19 168 -19 115 0 146 3 140 13 -6
10 -4 10 7 0 7 -7 33 -13 58 -13 43 1 45 2 27 15 -11 8 -15 15 -9 15 7 0 18
-7 27 -15 16 -16 46 -20 46 -7 0 28 -88 71 -147 72 -21 0 -41 9 -57 25 -14 14
-39 28 -56 31 -26 6 -30 11 -30 39 0 47 -41 93 -90 101 -33 6 -44 15 -84 73
-44 63 -46 69 -46 137 0 39 3 74 6 77 4 3 32 -16 63 -44 86 -78 234 -172 356
-227 190 -86 417 -179 495 -202 180 -55 230 -72 224 -81 -3 -5 36 -9 93 -8
l98 1 -65 18 c-322 89 -485 148 -548 198 l-23 18 33 -4 c41 -4 71 16 71 50 0
24 4 27 55 33 54 7 124 41 150 73 22 29 15 63 -17 75 -16 6 -32 19 -34 29 -4
13 -15 18 -37 18 -17 0 -64 13 -103 29 -40 16 -88 35 -109 42 -23 8 -79 54
-156 128 -103 100 -122 123 -137 168 -14 44 -15 59 -5 90 20 62 68 145 114
198 l44 50 -5 -70 c-5 -61 -2 -73 17 -97 23 -30 46 -38 36 -12 -3 8 3 33 14
54 15 30 26 39 43 37 16 -1 23 4 25 20 2 14 33 43 89 83 47 34 87 59 90 56 3
-2 7 -46 9 -98 4 -116 10 -151 39 -241 57 -178 111 -284 207 -405 52 -65 194
-190 270 -238 22 -14 37 -28 34 -31 -3 -3 -12 0 -21 7 -8 7 -15 8 -15 2 0 -14
24 -22 49 -15 15 4 21 1 21 -11 0 -9 5 -16 11 -16 6 0 44 -20 83 -45 40 -25
78 -45 84 -45 25 0 10 19 -40 51 -265 164 -404 282 -510 431 -65 91 -98 163
-128 278 -13 48 -14 379 -2 411 9 22 86 70 95 58 40 -52 196 -240 239 -288 32
-35 58 -70 58 -78 0 -7 -17 -32 -38 -56 -71 -78 -137 -195 -162 -286 -13 -49
-2 -73 23 -52 12 10 169 71 182 71 2 0 13 -20 24 -44 31 -72 101 -167 171
-234 69 -67 204 -143 328 -187 37 -13 121 -42 187 -65 66 -23 132 -48 147 -56
15 -8 32 -14 38 -14 6 0 10 68 10 203 l0 203 -70 49 c-39 28 -101 73 -139 100
-37 28 -119 78 -182 113 -169 93 -158 78 -113 161 21 39 41 71 45 71 4 0 56
-32 116 -71 133 -88 223 -178 291 -289 l52 -84 0 66 c0 64 -1 67 -45 116 -45
50 -219 180 -333 247 -34 21 -62 41 -62 45 0 28 199 244 293 317 61 47 58 47
130 18 16 -7 17 4 17 134 l0 141 -40 -25 c-22 -14 -45 -25 -51 -25 -7 0 -37
21 -68 48 -95 81 -430 402 -441 423 -23 41 -2 50 121 52 95 2 120 5 149 23 38
22 46 49 15 50 -55 2 -86 18 -140 75 -61 64 -61 66 -25 139 10 19 27 77 38
128 11 52 22 96 25 98 2 2 72 -130 155 -293 83 -164 175 -334 204 -378 l53
-80 3 139 c2 134 1 143 -28 224 -17 47 -28 87 -26 90 3 2 17 -3 31 -12 l25
-16 0 169 c0 181 3 167 -62 312 -13 30 -30 70 -37 89 -7 19 -46 125 -88 235
-41 110 -89 241 -105 290 -17 50 -39 107 -49 128 -11 20 -15 37 -10 37 5 0 45
-26 88 -59 90 -66 145 -139 188 -249 23 -60 27 -81 23 -146 -3 -61 -1 -75 10
-71 8 3 20 5 28 5 8 0 14 5 14 11 0 5 -5 7 -11 3 -8 -4 -9 1 -4 17 11 32 9 59
-10 190 -9 62 -26 137 -36 166 -27 71 -106 190 -158 236 -24 21 -41 39 -39 40
1 2 41 22 88 46 121 63 170 98 170 123 0 33 -127 213 -194 276 -91 84 -195
167 -258 205 l-56 33 19 25 c26 34 24 61 -8 91 -25 24 -131 92 -155 100 -6 2
13 46 41 97 65 116 70 138 39 172 -83 89 -326 229 -480 275 -179 54 -464 80
-588 54 -33 -7 -63 -10 -66 -7 -12 12 206 107 293 128 114 28 278 22 432 -15
91 -22 116 -32 190 -83 144 -98 270 -263 363 -477 143 -326 271 -526 396 -614
l32 -23 0 23 c-1 15 -15 34 -45 56 -74 54 -198 242 -291 438 -121 256 -146
305 -182 351 -20 26 -55 74 -76 106 -35 51 -63 79 -197 186 -52 42 -243 136
-325 160 -242 71 -518 75 -660 10 -27 -12 -57 -29 -66 -37 -15 -12 -20 -12
-46 7 -129 91 -306 86 -423 -14 l-52 -44 -40 34 c-22 19 -56 38 -75 41 -41 8
-160 -2 -176 -14 -31 -25 -79 -22 -130 7 -48 27 -164 66 -266 91 l-45 11 -1
102 c0 94 -3 107 -32 167 -38 79 -96 148 -159 189 l-46 31 -242 0 -242 0 -59
-40z m2516 -527 c37 -6 22 -8 -75 -14 -90 -5 -140 -13 -200 -33 -44 -15 -84
-32 -89 -37 -19 -18 -29 -8 -11 11 70 78 191 101 375 73z m-601 -29 c57 -26
149 -111 176 -163 8 -17 15 -32 14 -33 0 -2 5 -16 11 -32 6 -16 9 -35 6 -42
-6 -16 10 -28 19 -14 10 16 123 12 162 -7 53 -25 110 -90 130 -147 12 -34 18
-83 19 -146 0 -69 5 -104 17 -127 16 -30 22 -63 13 -63 -3 0 -37 31 -75 69
l-71 68 16 39 c30 71 -6 167 -76 201 -59 29 -155 17 -185 -24 -9 -12 -15 -11
-42 2 -38 19 -48 31 -33 40 5 3 10 22 10 42 0 97 -57 179 -148 213 -137 52
-271 -1 -289 -115 l-6 -36 -56 3 -56 3 -6 37 c-15 92 -114 129 -222 84 -59
-24 -111 -110 -95 -158 5 -14 -80 -68 -106 -68 -16 0 -106 60 -106 70 0 14 46
48 70 52 18 2 26 11 31 36 4 18 14 41 23 51 9 10 16 22 16 27 0 19 90 94 113
94 12 0 28 5 34 11 16 16 168 12 201 -5 15 -8 38 -26 51 -40 14 -14 29 -26 35
-26 6 1 33 21 60 45 107 96 221 116 345 59z m-47 -152 c72 -29 -9 -26 -132 5
-23 6 -23 7 10 13 36 6 75 0 122 -18z m-859 -42 c-7 -28 -11 -34 -24 -36 -5
-1 -13 -2 -18 -3 -5 0 -23 -15 -40 -31 l-30 -31 -55 16 c-30 9 -74 18 -97 21
-24 3 -45 7 -47 9 -8 7 212 66 250 66 10 0 20 4 22 7 3 4 14 8 25 8 17 0 19
-5 14 -26z m382 16 c35 -15 52 -38 51 -71 -1 -17 -10 -21 -67 -27 -37 -4 -94
-14 -128 -22 l-61 -14 0 30 c0 89 108 144 205 104z m428 -21 c62 -14 120 -28
130 -31 21 -7 47 -65 47 -109 0 -36 -8 -48 -24 -37 -6 4 -13 7 -16 7 -3 1 -23
9 -45 19 -71 31 -189 67 -242 73 -51 6 -52 7 -47 32 11 45 33 71 60 71 14 0
76 -11 137 -25z m-951 -122 c58 -19 92 -38 128 -70 26 -23 52 -43 57 -43 5 0
22 15 39 33 40 41 135 72 269 88 108 13 323 7 370 -10 17 -6 75 -25 130 -42
105 -34 235 -107 350 -199 96 -77 336 -327 412 -430 111 -150 217 -373 352
-737 16 -45 46 -157 66 -250 20 -92 44 -197 54 -233 11 -36 21 -76 24 -90 50
-249 100 -488 112 -535 20 -79 72 -210 103 -260 30 -50 98 -121 137 -146 l30
-19 -55 -2 c-30 -1 -73 -3 -94 -4 -48 -1 -136 20 -188 47 l-38 19 7 58 c13 95
9 479 -6 589 -15 120 -30 131 -20 16 9 -96 11 -470 3 -538 -3 -27 -9 -63 -14
-80 -4 -16 -14 -57 -21 -90 -17 -82 -92 -266 -130 -323 -76 -112 -139 -178
-247 -261 -63 -47 -124 -93 -135 -101 -119 -80 -209 -156 -241 -204 -20 -30
-36 -60 -36 -66 0 -6 -4 -8 -10 -5 -14 9 -13 125 1 125 20 0 79 32 74 40 -3 5
-33 0 -68 -11 -34 -10 -74 -19 -88 -19 -15 0 -52 -13 -83 -29 -31 -17 -56 -27
-56 -23 0 4 22 48 49 98 63 119 141 223 227 304 38 36 83 80 101 98 36 37 173
237 173 254 0 5 -38 -25 -84 -68 -96 -91 -162 -133 -273 -175 -43 -16 -80 -29
-83 -29 -3 1 7 11 21 23 37 32 182 214 213 268 37 65 77 184 110 332 l7 28 18
-23 c11 -13 22 -20 26 -16 9 9 -13 76 -27 80 -8 3 -7 28 1 88 45 319 27 753
-40 967 -5 17 -9 35 -8 40 4 24 -3 44 -22 62 -16 15 -22 34 -24 81 -1 35 -8
65 -14 69 -16 10 -42 92 -36 112 6 19 -51 142 -108 231 -21 31 -37 60 -37 63
0 5 -77 112 -90 125 -3 3 -21 25 -40 50 -107 139 -351 389 -450 461 -57 41
-222 126 -289 149 -68 23 -161 28 -204 11 -23 -9 -55 -57 -44 -67 2 -2 68 -20
148 -40 150 -38 250 -77 305 -119 18 -14 45 -30 60 -35 42 -16 211 -137 284
-202 36 -33 89 -87 118 -121 91 -105 227 -317 261 -406 56 -145 135 -514 155
-721 7 -76 14 -80 -103 59 -76 92 -126 194 -196 403 -19 57 -34 98 -35 93 0
-6 11 -71 24 -146 31 -177 109 -370 261 -649 l46 -85 -70 75 c-69 73 -91 80
-51 16 10 -18 34 -46 52 -63 61 -56 69 -71 62 -109 -3 -18 -9 -34 -13 -34 -13
0 -143 80 -199 124 -66 50 -153 141 -188 197 -37 59 -46 58 -38 -3 12 -93 82
-281 127 -338 7 -8 18 -26 26 -40 8 -14 20 -35 28 -46 13 -20 12 -21 -14 -16
-55 9 -168 145 -252 303 -59 112 -63 128 -23 122 21 -4 24 -2 12 6 -8 6 -23
11 -33 11 -21 0 -52 64 -103 218 -44 131 -104 378 -104 429 0 21 -5 57 -10 79
-5 23 -12 102 -15 175 -3 74 -10 179 -16 234 -11 107 -62 334 -67 299 -2 -11
11 -153 27 -315 17 -162 34 -328 38 -369 18 -174 -7 -364 -69 -535 -16 -44
-40 -111 -53 -148 -38 -108 -73 -175 -142 -274 -77 -110 -69 -111 -178 14
-109 124 -170 267 -211 488 -36 198 -29 734 12 955 17 92 17 107 -1 57 -15
-39 -39 -206 -50 -332 -6 -87 -8 -436 -1 -456 3 -8 7 -51 10 -96 13 -194 60
-389 117 -485 52 -88 146 -204 199 -247 23 -18 39 -35 37 -38 -3 -2 -25 5 -50
16 -25 12 -49 21 -52 21 -4 0 -40 28 -82 62 -101 84 -225 258 -282 397 -74
178 -95 474 -51 726 25 146 51 222 116 343 48 89 56 131 12 65 -67 -102 -122
-239 -143 -356 -8 -49 -18 -93 -21 -99 -4 -6 -6 -97 -6 -202 1 -265 29 -404
117 -591 18 -38 36 -90 40 -115 3 -25 18 -96 32 -158 13 -63 22 -116 20 -118
-2 -3 -31 27 -63 65 -61 72 -84 87 -43 29 29 -41 55 -72 97 -114 18 -18 39
-50 46 -71 19 -54 78 -175 93 -191 21 -22 15 -23 -34 -3 -202 81 -306 161
-410 316 -57 85 -108 189 -126 255 -25 93 -29 112 -17 105 5 -3 18 -2 27 4 16
9 14 11 -13 21 -30 11 -32 15 -43 88 -7 44 -18 83 -28 92 -14 14 -15 11 -9
-30 18 -116 19 -130 8 -130 -6 0 -18 24 -26 53 -93 327 6 785 249 1162 69 106
226 275 295 315 8 5 11 12 8 16 -25 25 -244 -195 -339 -341 -103 -157 -179
-318 -214 -451 -29 -112 -53 -239 -59 -319 -11 -127 -15 -148 -30 -136 -7 6
-16 8 -20 4 -3 -4 0 12 8 35 8 23 13 42 11 42 -2 0 -35 -53 -74 -117 -39 -65
-90 -146 -115 -181 -66 -94 -276 -322 -343 -372 -32 -25 -75 -59 -96 -77 -20
-18 -41 -33 -46 -33 -16 0 -24 99 -25 317 -1 189 -6 237 -21 222 -23 -23 -39
-529 -23 -719 4 -47 12 -139 17 -205 12 -137 33 -257 62 -351 41 -133 -1 -70
-85 129 -53 125 -60 147 -71 221 -3 16 -9 43 -14 60 -5 17 -17 85 -27 151 -9
66 -20 127 -25 135 -14 25 -10 -66 7 -175 9 -55 17 -111 19 -125 5 -36 25
-112 36 -135 5 -11 20 -60 33 -110 20 -74 76 -228 117 -320 42 -93 167 -280
238 -355 33 -35 59 -65 57 -67 -8 -8 -132 40 -242 94 -128 62 -178 105 -294
258 -33 42 -60 73 -60 69 0 -18 162 -223 198 -250 20 -16 52 -43 71 -61 19
-18 58 -45 87 -60 29 -15 55 -35 57 -44 8 -29 -4 -122 -19 -151 -15 -29 -30
-39 -21 -14 6 15 -14 79 -42 134 -11 21 -114 132 -231 247 -314 311 -374 396
-401 565 -18 112 -15 330 6 455 9 55 16 111 16 125 -1 14 3 34 8 45 5 11 14
38 19 60 6 22 17 65 26 95 21 70 31 141 18 120 -15 -22 -62 -168 -62 -189 0
-10 -9 -48 -20 -83 -14 -47 -26 -68 -44 -76 -69 -31 -188 -22 -256 20 l-35 22
32 6 c43 10 152 89 208 152 52 60 110 174 148 293 57 175 130 392 143 420 7
17 32 82 55 145 43 121 53 145 101 250 86 190 329 500 477 610 36 27 71 53 76
57 26 22 143 101 170 114 17 9 71 38 120 66 245 137 429 168 617 106z m1391
-98 c27 -11 67 -87 67 -127 0 -58 -21 -65 -67 -23 -21 19 -64 54 -95 77 -32
24 -57 47 -58 51 0 4 15 14 33 22 31 14 84 14 120 0z m384 -182 c63 -76 89
-122 118 -208 15 -44 31 -88 36 -97 5 -10 12 -35 15 -55 3 -21 9 -45 14 -53
21 -41 42 -241 30 -289 -5 -22 -10 -16 -41 45 -69 134 -156 270 -236 367 -37
45 -49 67 -51 99 -3 42 -26 108 -42 118 -6 4 -5 21 1 45 7 23 8 65 4 103 l-7
65 60 -46 c33 -26 77 -68 99 -94z m161 -82 c52 -43 209 -226 253 -296 36 -56
115 -221 161 -335 88 -217 146 -433 169 -625 14 -120 5 -463 -16 -607 -15 -98
-84 -323 -96 -310 -9 9 -42 149 -68 283 -11 58 -25 117 -30 132 -6 15 -9 27
-6 27 2 0 -1 15 -7 33 -5 17 -11 41 -14 52 -2 11 -9 42 -15 69 -9 37 -8 67 1
125 7 42 12 139 12 216 -2 320 -70 568 -283 1027 -38 84 -84 177 -100 206 -32
58 -28 58 39 3z m45 -248 c75 -172 133 -435 152 -687 3 -44 2 -77 -1 -73 -4 4
-30 64 -57 134 -47 119 -50 135 -53 228 -3 134 -10 187 -35 281 -35 136 -37
144 -32 144 3 0 0 7 -7 15 -7 8 -8 15 -3 15 6 0 22 -26 36 -57z m-3937 -128
c22 -22 25 -31 19 -71 -5 -43 -5 -44 14 -35 33 18 70 12 96 -14 28 -27 32 -63
10 -104 -28 -55 -138 -70 -179 -26 l-24 26 -10 -30 c-19 -53 -108 -91 -140
-59 -31 31 4 105 55 114 36 7 40 19 18 48 -18 24 -20 116 -2 138 35 45 105 51
143 13z m2802 -1098 c23 -46 42 -85 42 -88 0 -2 -33 -5 -74 -6 -41 -1 -83 -6
-94 -12 -32 -17 -32 -3 2 52 17 29 40 72 50 95 10 23 22 42 25 42 3 0 25 -38
49 -83z m-1367 -84 c41 -109 163 -282 304 -431 l78 -83 -63 -64 c-67 -68 -73
-91 -23 -97 44 -5 154 9 201 25 42 15 45 14 100 -13 64 -31 154 -60 189 -60
24 0 31 14 12 26 -12 7 -69 94 -69 105 0 4 46 47 103 96 l102 89 40 -12 c45
-14 135 -18 135 -6 0 4 -19 13 -42 20 -24 6 -54 20 -67 30 l-24 19 41 54 c23
30 62 81 87 114 26 33 56 76 67 96 23 42 51 49 187 49 l77 0 69 -107 c71 -110
138 -196 206 -268 l38 -40 -104 0 -105 0 -11 28 c-25 61 -94 39 -105 -35 -6
-35 -12 -41 -71 -70 -108 -54 -263 -192 -263 -234 0 -17 8 -18 24 -1 26 24 61
52 89 70 15 9 39 25 53 34 l27 17 -13 -24 c-49 -92 -66 -335 -33 -468 15 -60
23 -73 76 -124 47 -47 72 -62 124 -78 72 -22 103 -25 103 -10 0 13 -8 15 -85
31 -50 9 -67 19 -102 55 -50 51 -93 131 -93 174 0 23 13 43 53 85 29 30 57 55
63 55 5 0 10 -19 11 -41 6 -90 91 -176 187 -186 53 -6 136 27 171 69 26 30 59
124 49 139 -15 24 19 4 65 -39 62 -58 65 -82 20 -170 -38 -78 -73 -107 -159
-133 -81 -24 -121 -57 -55 -45 22 4 72 23 112 42 86 40 118 82 158 207 44 138
30 274 -45 434 -21 46 -36 82 -32 80 4 -2 43 -21 87 -42 105 -51 123 -68 137
-138 16 -76 -9 -212 -57 -312 -37 -76 -173 -249 -221 -279 -34 -22 -64 -57
-58 -68 3 -4 26 -5 52 -2 l47 5 -37 -23 c-21 -13 -38 -25 -38 -29 0 -3 25 -2
55 1 34 4 55 2 55 -4 0 -5 -17 -30 -38 -55 -21 -25 -44 -56 -51 -68 -6 -13
-24 -29 -40 -38 -27 -14 -47 -21 -171 -66 -68 -24 -337 -73 -525 -94 -238 -28
-612 -3 -843 56 -258 65 -472 160 -584 258 -91 80 -138 203 -178 466 -27 177
-47 302 -64 388 -7 39 -9 70 -4 73 18 11 38 -6 38 -32 0 -65 61 -306 75 -293
1 2 -3 36 -11 74 -7 39 -13 107 -14 153 0 75 2 85 25 107 13 14 30 25 37 26 7
0 24 3 38 5 14 3 65 8 113 11 l88 5 -50 -50 c-85 -85 -114 -168 -113 -330 1
-164 22 -236 92 -315 46 -52 108 -91 157 -100 59 -11 44 11 -30 47 -79 38
-120 80 -143 145 -10 29 -9 39 4 61 19 31 73 90 83 90 4 0 10 -15 13 -33 7
-39 57 -102 97 -122 34 -18 37 -13 9 15 -23 23 -27 86 -7 114 12 16 17 17 37
6 14 -8 41 -10 70 -7 44 5 47 4 57 -22 13 -34 -5 -83 -36 -103 -32 -19 -25
-28 12 -16 52 17 93 54 117 103 l22 46 25 -23 c21 -19 24 -30 20 -63 -11 -101
-83 -188 -167 -201 -41 -7 -75 -44 -40 -44 10 0 44 9 74 20 77 29 129 88 155
178 26 86 37 146 35 192 -3 61 -14 152 -21 163 -4 6 0 8 10 4 22 -8 21 -6 -5
50 -35 75 -168 202 -261 249 -54 27 -85 49 -99 73 l-22 34 40 -7 c101 -17 279
-139 320 -219 9 -16 18 -26 21 -23 4 3 -11 31 -32 62 -61 89 -212 185 -315
200 -25 4 -54 13 -66 20 -17 12 -23 12 -40 -1 -10 -8 -44 -15 -74 -17 l-55 -2
53 -3 c44 -3 53 -7 50 -21 -3 -13 -19 -19 -78 -24 -100 -10 -199 -41 -265 -83
-30 -19 -57 -35 -60 -35 -3 0 -5 31 -5 69 0 76 5 84 65 100 77 20 325 182 465
304 73 64 96 70 111 30z m129 -53 c10 -36 21 -76 24 -90 11 -38 -29 41 -48 96
-19 56 -20 67 -5 62 7 -2 20 -33 29 -68z m480 -95 c33 -53 142 -152 214 -195
42 -25 75 -49 73 -55 -4 -10 -164 -105 -177 -105 -11 0 -46 91 -95 245 -42
131 -46 162 -15 110z m1270 -156 c41 -27 109 -63 150 -80 162 -65 150 -57 146
-103 -10 -98 -19 -156 -26 -156 -4 0 -18 13 -31 29 -34 40 -129 104 -179 121
-44 15 -48 18 -111 118 -35 54 -79 143 -79 159 0 2 12 -5 28 -17 15 -12 61
-43 102 -71z m-1459 -328 c-6 -4 -35 -9 -63 -10 -56 -2 -56 -3 -4 57 l20 23
30 -32 c20 -21 25 -33 17 -38z m-407 -162 c46 -21 56 -107 18 -151 -10 -12
-30 -18 -58 -18 -35 0 -46 5 -62 28 -28 41 -32 58 -21 92 18 50 73 71 123 49z
m1629 -39 c34 -27 43 -70 23 -109 -31 -59 -90 -68 -137 -22 -40 40 -39 83 2
122 37 34 76 37 112 9z m-87 -181 c4 -7 22 -9 50 -4 36 5 44 3 53 -14 29 -53
-7 -117 -71 -128 -32 -5 -41 -1 -68 25 -19 20 -30 41 -30 59 0 50 46 94 66 62z
m1409 -290 c91 -87 198 -177 314 -264 44 -33 80 -62 81 -65 0 -7 -149 -99
-245 -150 -44 -24 -138 -81 -208 -127 -77 -51 -135 -82 -144 -79 -8 3 -55 34
-104 67 -94 65 -142 115 -179 188 l-22 44 84 86 c66 67 154 167 174 199 1 2
26 -15 56 -39 29 -23 80 -54 113 -69 55 -25 105 -42 105 -36 0 2 -22 17 -49
34 -26 17 -80 61 -120 98 -68 63 -71 68 -55 85 16 17 18 17 63 -20 56 -47 133
-87 187 -96 l39 -7 -60 39 c-33 22 -87 64 -119 94 l-59 55 18 32 c22 37 15 41
130 -69z m-3821 -238 c3 -4 -27 -39 -65 -77 -80 -79 -111 -122 -63 -86 16 12
57 48 91 80 62 59 63 60 84 41 12 -11 20 -21 18 -23 -2 -3 -47 -49 -99 -102
-99 -102 -100 -106 -10 -41 76 55 130 108 123 121 -4 6 4 2 16 -9 23 -20 61
-82 43 -71 -5 3 -20 -9 -33 -27 -13 -17 -44 -54 -69 -81 l-45 -49 60 40 c63
42 89 68 97 93 7 22 48 -76 48 -114 0 -18 -7 -41 -15 -52 -35 -46 -5 -59 43
-19 41 35 71 100 73 163 2 28 7 52 12 52 16 0 97 -50 97 -59 0 -20 -168 -195
-236 -246 -66 -50 -88 -75 -66 -75 22 0 229 170 269 221 l46 59 18 -26 c9 -15
25 -44 35 -65 l17 -39 -36 -69 c-20 -38 -38 -85 -40 -105 -3 -20 -6 -38 -8
-40 -45 -37 -277 -146 -429 -201 -69 -25 -134 -50 -145 -55 -11 -5 -49 -21
-85 -35 -36 -15 -84 -38 -108 -52 -24 -14 -46 -22 -50 -18 -17 16 272 266 379
328 25 14 51 33 59 41 11 14 9 16 -9 16 -37 0 -359 -227 -446 -315 -60 -60
-159 -209 -153 -232 1 -4 -6 -31 -15 -60 -18 -61 -9 -116 24 -134 26 -14 36
-5 16 15 -54 54 -12 169 92 255 52 43 136 95 170 106 20 6 22 5 12 -13 -17
-32 -13 -99 8 -140 35 -68 160 -163 218 -165 7 0 10 -4 8 -8 -5 -7 -124 -66
-240 -119 -27 -13 -63 -33 -80 -45 -65 -47 -71 -48 -123 -19 -67 39 -97 69
-112 115 -11 31 -23 45 -54 61 -61 31 -361 264 -409 318 -91 101 -146 210
-147 289 0 40 5 49 57 102 61 61 51 57 448 218 85 35 202 92 265 129 41 25
104 61 140 80 93 50 138 83 194 141 l49 50 28 -20 c16 -11 31 -23 33 -28z
m1796 -367 c7 -18 15 -24 27 -20 8 4 27 -1 41 -10 l26 -17 -23 -18 c-27 -22
-22 -34 18 -42 20 -4 38 -19 54 -44 27 -42 27 -54 0 -31 -22 18 -233 144 -251
149 -12 4 72 58 91 59 4 0 12 -12 17 -26z m-520 8 c0 -5 -9 -17 -20 -27 -22
-20 -103 -157 -114 -192 -4 -13 -13 -23 -19 -23 -33 1 -54 14 -64 40 -11 29
-9 32 65 98 110 98 152 126 152 104z m724 -23 c33 -17 87 -47 119 -66 52 -31
57 -38 57 -69 l0 -34 -64 0 -64 0 -27 48 c-15 26 -43 68 -61 95 -50 69 -48 70
40 26z m-1354 -25 l35 -24 16 21 c21 28 54 18 67 -19 26 -77 -60 -113 -92 -39
l-14 32 -1 -28 c-1 -18 8 -36 24 -51 23 -22 24 -24 11 -77 -7 -30 -17 -62 -21
-71 -4 -11 -3 -18 4 -18 17 0 51 76 51 113 0 26 6 36 25 45 25 11 25 11 25
-31 0 -53 -17 -117 -38 -140 -8 -9 -12 -20 -8 -24 4 -4 16 3 27 17 l19 25 105
-107 c58 -60 105 -102 105 -95 0 7 -21 33 -46 57 -62 61 -70 76 -43 90 11 6
44 14 72 16 79 7 104 51 42 74 -30 11 -30 12 -9 56 20 42 30 43 39 4 5 -24 13
-31 42 -36 39 -7 39 0 -1 -111 -30 -83 -32 -123 -11 -183 14 -40 14 -45 -3
-64 -11 -12 -32 -37 -48 -56 -50 -60 -95 -100 -120 -106 -77 -20 -158 42 -227
174 -37 70 -38 76 -28 117 16 64 14 148 -5 171 -8 10 -17 15 -20 9 -16 -37
-46 -75 -60 -75 -23 0 -103 49 -115 72 -24 44 -10 124 38 220 42 83 87 95 163
42z m699 -4 c11 -5 47 -6 92 -1 41 5 76 7 78 5 1 -1 -41 -24 -95 -50 -55 -26
-123 -62 -152 -82 -29 -19 -55 -33 -57 -30 -3 2 4 20 14 39 16 29 33 44 76 63
6 3 2 11 -8 19 -17 14 -17 16 5 31 27 19 25 19 47 6z m2227 -93 c2 -2 -7 -14
-20 -26 l-23 -22 -52 63 c-28 35 -51 66 -51 70 0 6 133 -71 146 -85z m-1836
17 c119 -60 223 -132 214 -146 -3 -5 -11 -5 -18 1 -7 6 -36 15 -65 22 l-52 11
-47 -39 c-43 -36 -130 -83 -154 -83 -6 0 -42 12 -81 26 -59 21 -77 33 -99 65
-32 44 -57 49 -128 24 -75 -26 -77 -16 -5 26 94 56 286 148 308 149 10 0 68
-25 127 -56z m-766 -139 c-4 -9 0 -15 9 -15 8 0 25 -8 38 -19 22 -18 22 -19 3
-28 -19 -10 -124 -24 -124 -16 0 5 73 93 77 93 1 0 0 -7 -3 -15z m456 -30 c17
-25 38 -45 46 -45 8 0 42 -11 75 -25 l60 -24 69 28 c37 15 86 43 108 63 44 40
76 41 121 6 22 -17 26 -17 47 -3 23 14 25 13 66 -31 63 -68 71 -87 66 -165 -4
-76 -21 -108 -78 -146 -23 -16 -48 -23 -81 -23 -27 0 -69 -7 -95 -16 -36 -12
-53 -13 -71 -5 -13 6 -51 11 -83 11 -62 0 -65 3 -61 50 1 11 -2 10 -10 -3 -6
-10 -8 -24 -5 -32 9 -24 -89 -46 -155 -36 -65 11 -145 3 -160 -15 -8 -10 -8
-22 0 -45 17 -50 14 -69 -15 -80 -15 -5 -29 -7 -32 -4 -12 12 -1 80 18 112 25
43 18 55 -52 80 -58 21 -102 66 -117 120 -15 53 -13 72 10 123 28 62 68 103
86 88 10 -8 12 -8 8 4 -9 22 19 42 42 29 13 -7 34 -4 73 9 30 11 63 19 72 20
9 0 31 -20 48 -45z m-1010 1 c0 -24 41 -66 85 -86 24 -11 46 -24 49 -28 9 -15
-37 -70 -99 -118 l-60 -46 -6 68 c-6 60 -18 106 -43 165 -5 12 2 22 26 37 40
25 48 26 48 8z m-76 -105 c19 -85 21 -161 3 -185 -8 -11 -31 -20 -60 -23 -51
-6 -81 -28 -53 -39 9 -4 35 -4 56 -1 22 3 40 1 40 -3 0 -24 -104 -112 -163
-139 l-66 -30 -65 20 c-51 16 -74 30 -110 69 -25 27 -47 59 -47 72 -1 13 -3
51 -4 86 -1 61 -1 62 29 71 46 13 250 95 336 135 41 19 78 35 82 35 3 1 14
-30 22 -68z m2019 48 c10 -6 16 -17 13 -27 -3 -9 -8 -34 -12 -55 -5 -28 -10
-36 -23 -33 -9 3 -37 8 -62 11 l-47 7 22 60 21 59 35 -6 c19 -4 43 -11 53 -16z
m1471 -96 c61 -38 122 -74 135 -81 96 -51 231 -142 264 -179 16 -19 16 -21
-12 -60 -60 -83 -162 -147 -276 -173 -35 -8 -48 -5 -103 20 -73 34 -171 107
-197 147 -82 123 -97 218 -38 225 22 3 31 15 61 86 18 45 38 82 44 82 6 0 60
-30 122 -67z m-1297 -13 c74 -71 69 -58 72 -185 2 -70 -12 -131 -33 -147 -22
-16 -26 -15 -114 38 l-92 55 20 38 c28 55 60 178 60 229 0 24 4 42 9 40 5 -1
40 -32 78 -68z m-1917 28 c0 -16 -3 -19 -11 -11 -6 6 -8 16 -5 22 11 17 16 13
16 -11z m1641 -120 c42 -12 45 -20 26 -55 l-13 -23 -39 27 c-22 14 -41 27 -43
28 -6 5 11 35 20 35 6 0 28 -5 49 -12z m1279 -24 c0 -8 -4 -12 -10 -9 -5 3
-10 10 -10 16 0 5 5 9 10 9 6 0 10 -7 10 -16z m-2422 -153 c-7 -99 -24 -146
-106 -284 -38 -63 -75 -129 -82 -146 -13 -31 -30 -42 -30 -18 -1 27 -70 105
-109 123 -22 11 -41 21 -41 24 0 3 24 20 53 38 89 54 127 105 127 172 0 19 6
31 19 35 11 3 32 22 47 43 16 20 46 56 68 80 34 37 41 41 49 26 5 -9 7 -51 5
-93z m1617 89 c10 -11 14 -20 9 -20 -5 0 -19 -3 -30 -6 -19 -5 -21 -2 -17 20
6 31 14 32 38 6z m-2873 -123 c44 -26 162 -71 203 -79 17 -3 16 -6 -12 -21
-45 -24 -75 -21 -143 13 -63 32 -119 82 -151 134 -29 48 -23 54 19 15 20 -20
58 -48 84 -62z m2872 -43 c22 -21 20 -56 -5 -88 -17 -21 -24 -24 -35 -15 -18
15 -19 105 -1 112 20 9 25 8 41 -9z m-1484 -278 c0 -21 -11 -46 -20 -46 -9 0
-19 47 -12 55 11 10 32 5 32 -9z m-100 -75 c0 -32 -14 -41 -66 -41 -42 0 -43
11 -3 44 42 36 69 35 69 -3z m640 -7 c11 -12 10 -18 -3 -32 -16 -15 -18 -15
-34 0 -13 14 -14 20 -3 32 16 20 24 20 40 0z m449 3 c6 -8 8 -17 5 -20 -4 -3
1 -14 11 -23 14 -15 15 -19 2 -32 -19 -18 -37 -8 -38 21 -1 17 -2 18 -6 5 -5
-20 -28 -24 -39 -6 -4 6 1 17 11 25 11 7 15 13 11 13 -5 0 -3 7 4 15 15 19 24
19 39 2z m-489 -57 c0 -24 -25 -33 -40 -14 -10 11 -10 17 0 28 15 19 40 10 40
-14z m784 2 c2 -4 -11 -6 -30 -4 -19 2 -34 6 -34 8 0 8 59 4 64 -4z"/>
<path d="M2800 5004 c-231 -43 -411 -159 -593 -384 -93 -116 -207 -304 -207
-342 0 -12 16 10 136 198 62 97 157 211 176 211 7 0 33 12 58 28 170 108 276
149 465 181 30 5 183 6 220 2 15 -2 21 4 23 25 3 25 -2 30 -61 58 -74 34 -125
40 -217 23z"/>
<path d="M2939 4578 c-70 -75 -121 -149 -175 -253 -52 -100 -146 -327 -138
-334 10 -10 27 21 55 99 66 190 166 368 274 488 26 28 44 52 40 52 -4 0 -29
-24 -56 -52z"/>
<path d="M5155 3370 c24 -144 39 -220 45 -220 9 0 -15 138 -35 200 -8 25 -13
34 -10 20z"/>
<path d="M5202 3110 c0 -19 2 -27 5 -17 2 9 2 25 0 35 -3 9 -5 1 -5 -18z"/>
<path d="M4068 3103 c7 -3 16 -2 19 1 4 3 -2 6 -13 5 -11 0 -14 -3 -6 -6z"/>
<path d="M5212 3040 c0 -14 2 -19 5 -12 2 6 2 18 0 25 -3 6 -5 1 -5 -13z"/>
<path d="M5221 2974 c0 -11 3 -14 6 -6 3 7 2 16 -1 19 -3 4 -6 -2 -5 -13z"/>
<path d="M2895 2790 c40 -69 211 -250 237 -250 4 0 -25 33 -65 73 -40 39 -98
99 -127 132 -30 33 -50 53 -45 45z"/>
<path d="M3150 2526 c0 -2 7 -7 16 -10 8 -3 12 -2 9 4 -6 10 -25 14 -25 6z"/>
<path d="M4098 2773 c7 -3 16 -2 19 1 4 3 -2 6 -13 5 -11 0 -14 -3 -6 -6z"/>
<path d="M3782 2680 c-75 -41 -172 -116 -172 -132 0 -6 21 8 48 30 26 22 87
63 137 91 105 60 94 69 -13 11z"/>
<path d="M3100 1566 c0 -16 37 -28 46 -15 8 14 -5 29 -27 29 -10 0 -19 -6 -19
-14z"/>
<path d="M659 1136 c-121 -49 -169 -97 -169 -166 0 -51 53 -114 111 -132 49
-14 58 -6 35 33 -39 67 19 232 97 276 40 23 -12 15 -74 -11z m11 -22 c0 -3
-11 -19 -25 -36 -31 -37 -54 -113 -49 -161 6 -47 -14 -49 -50 -6 -37 44 -36
96 3 133 46 45 121 88 121 70z"/>
<path d="M2235 1100 c3 -5 12 -7 20 -3 21 7 19 13 -6 13 -11 0 -18 -4 -14 -10z"/>
<path d="M2875 940 c-13 -5 -14 -9 -5 -9 8 0 24 4 35 9 13 5 14 9 5 9 -8 0
-24 -4 -35 -9z"/>
<path d="M3502 924 c10 -10 20 -15 24 -12 3 4 -5 12 -18 18 -22 12 -22 12 -6
-6z"/>
<path d="M3586 921 c-4 -5 3 -7 14 -4 23 6 26 13 6 13 -8 0 -17 -4 -20 -9z"/>
<path d="M3105 860 c11 -5 27 -9 35 -9 9 0 8 4 -5 9 -11 5 -27 9 -35 9 -9 0
-8 -4 5 -9z"/>
<path d="M3170 840 c8 -5 20 -10 25 -10 6 0 3 5 -5 10 -8 5 -19 10 -25 10 -5
0 -3 -5 5 -10z"/>
<path d="M3186 784 c-4 -9 -4 -19 -1 -22 2 -3 7 3 11 12 4 9 4 19 1 22 -2 3
-7 -3 -11 -12z"/>
<path d="M3250 786 c0 -2 8 -10 18 -17 15 -13 16 -12 3 4 -13 16 -21 21 -21
13z"/>
<path d="M3427 730 c-10 -43 -17 -110 -13 -110 7 0 28 110 23 123 -2 6 -7 1
-10 -13z"/>
<path d="M3205 706 c10 -14 19 -26 22 -26 7 0 -17 39 -28 46 -6 3 -3 -5 6 -20z"/>
<path d="M3250 710 c-6 -12 -9 -24 -7 -27 3 -2 11 5 17 17 6 12 9 24 7 27 -3
2 -11 -5 -17 -17z"/>
<path d="M2850 664 c0 -12 38 -74 46 -74 3 0 -5 17 -17 38 -28 46 -29 47 -29
36z"/>
<path d="M3531 627 c-13 -21 -12 -21 5 -5 10 10 16 20 13 22 -3 3 -11 -5 -18
-17z"/>
<path d="M1740 730 c-63 -27 -123 -49 -132 -49 -13 -1 -18 -9 -18 -32 0 -29 2
-31 28 -24 45 11 132 53 132 64 0 16 72 61 97 61 14 0 23 6 23 15 0 20 3 20
-130 -35z"/>
<path d="M5355 649 c-16 -10 -38 -19 -48 -19 -16 0 -16 -1 -1 -25 23 -35 44
-28 65 23 10 23 17 42 16 41 -1 0 -15 -9 -32 -20z"/>
<path d="M563 3400 c-13 -5 -23 -11 -23 -14 0 -5 72 13 79 20 8 7 -34 3 -56
-6z"/>
<path d="M348 3258 c-9 -7 -24 -26 -34 -43 l-18 -30 28 25 c25 22 52 60 43 60
-2 0 -10 -6 -19 -12z"/>
<path d="M275 3048 c-9 -31 -13 -106 -6 -138 l8 -35 7 35 c6 32 5 150 -2 150
-1 0 -4 -6 -7 -12z"/>
<path d="M280 2801 c0 -12 5 -21 10 -21 6 0 10 6 10 14 0 8 -4 18 -10 21 -5 3
-10 -3 -10 -14z"/>
<path d="M555 2765 c-18 -17 -25 -35 -25 -64 0 -35 -3 -41 -25 -47 -82 -20
-87 -165 -6 -151 14 2 33 7 41 11 11 4 19 -2 27 -23 29 -78 183 -31 183 56 0
27 -49 83 -74 83 -13 0 -13 3 0 28 21 41 17 61 -20 98 -40 40 -68 43 -101 9z"/>
<path d="M128 2743 c7 -3 16 -2 19 1 4 3 -2 6 -13 5 -11 0 -14 -3 -6 -6z"/>
<path d="M168 2743 c7 -3 16 -2 19 1 4 3 -2 6 -13 5 -11 0 -14 -3 -6 -6z"/>
<path d="M208 2733 c7 -3 16 -2 19 1 4 3 -2 6 -13 5 -11 0 -14 -3 -6 -6z"/>
<path d="M0 2074 c0 -8 10 -14 26 -14 28 0 25 15 -6 23 -13 3 -20 0 -20 -9z"/>
<path d="M549 2015 c-71 -66 -328 -148 -437 -140 l-47 4 44 -14 c97 -30 229
-22 341 23 57 22 147 69 153 79 3 5 -5 20 -18 35 -19 22 -25 24 -36 13z"/>
<path d="M1110 1940 c-26 -17 -118 -32 -201 -32 -84 -1 -87 -10 -9 -23 60 -10
211 -8 241 4 23 8 34 11 44 11 3 0 -2 11 -11 25 -17 26 -39 31 -64 15z"/>
<path d="M4806 411 c10 -11 296 -131 311 -131 22 0 -29 25 -152 75 -180 73
-172 71 -159 56z"/>
<path d="M5462 99 c6 -18 85 -61 92 -50 4 5 -13 21 -37 35 -48 28 -61 32 -55
15z"/>
</g>
</svg>
